<?xml version="1.0" standalone="no"?>
<svg xmlns:xlink="http://www.w3.org/1999/xlink" id="wave" style="transform:rotate(0deg); transition: 0.3s" viewBox="0 0 1440 490" version="1.1" xmlns="http://www.w3.org/2000/svg"><defs><linearGradient id="sw-gradient-0" x1="0" x2="0" y1="1" y2="0"><stop stop-color="rgba(255, 0, 118, 1)" offset="0%"/><stop stop-color="rgba(255, 104.606, 174.2, 1)" offset="100%"/></linearGradient></defs><path style="transform:translate(0, 0px); opacity:1" fill="url(#sw-gradient-0)" d="M0,245L16,277.7C32,310,64,376,96,367.5C128,359,160,278,192,212.3C224,147,256,98,288,130.7C320,163,352,278,384,269.5C416,261,448,131,480,65.3C512,0,544,0,576,65.3C608,131,640,261,672,261.3C704,261,736,131,768,122.5C800,114,832,229,864,269.5C896,310,928,278,960,277.7C992,278,1024,310,1056,343C1088,376,1120,408,1152,383.8C1184,359,1216,278,1248,269.5C1280,261,1312,327,1344,334.8C1376,343,1408,294,1440,253.2C1472,212,1504,180,1536,187.8C1568,196,1600,245,1632,269.5C1664,294,1696,294,1728,261.3C1760,229,1792,163,1824,171.5C1856,180,1888,261,1920,302.2C1952,343,1984,343,2016,285.8C2048,229,2080,114,2112,89.8C2144,65,2176,131,2208,130.7C2240,131,2272,65,2288,32.7L2304,0L2304,490L2288,490C2272,490,2240,490,2208,490C2176,490,2144,490,2112,490C2080,490,2048,490,2016,490C1984,490,1952,490,1920,490C1888,490,1856,490,1824,490C1792,490,1760,490,1728,490C1696,490,1664,490,1632,490C1600,490,1568,490,1536,490C1504,490,1472,490,1440,490C1408,490,1376,490,1344,490C1312,490,1280,490,1248,490C1216,490,1184,490,1152,490C1120,490,1088,490,1056,490C1024,490,992,490,960,490C928,490,896,490,864,490C832,490,800,490,768,490C736,490,704,490,672,490C640,490,608,490,576,490C544,490,512,490,480,490C448,490,416,490,384,490C352,490,320,490,288,490C256,490,224,490,192,490C160,490,128,490,96,490C64,490,32,490,16,490L0,490Z"/><defs><linearGradient id="sw-gradient-1" x1="0" x2="0" y1="1" y2="0"><stop stop-color="rgba(29, 213, 3, 1)" offset="0%"/><stop stop-color="rgba(94.21, 255, 71.489, 1)" offset="100%"/></linearGradient></defs><path style="transform:translate(0, 50px); opacity:0.9" fill="url(#sw-gradient-1)" d="M0,245L16,277.7C32,310,64,376,96,343C128,310,160,180,192,155.2C224,131,256,212,288,261.3C320,310,352,327,384,326.7C416,327,448,310,480,269.5C512,229,544,163,576,130.7C608,98,640,98,672,114.3C704,131,736,163,768,163.3C800,163,832,131,864,147C896,163,928,229,960,212.3C992,196,1024,98,1056,122.5C1088,147,1120,294,1152,367.5C1184,441,1216,441,1248,392C1280,343,1312,245,1344,212.3C1376,180,1408,212,1440,236.8C1472,261,1504,278,1536,277.7C1568,278,1600,261,1632,261.3C1664,261,1696,278,1728,310.3C1760,343,1792,392,1824,400.2C1856,408,1888,376,1920,310.3C1952,245,1984,147,2016,122.5C2048,98,2080,147,2112,204.2C2144,261,2176,327,2208,318.5C2240,310,2272,229,2288,187.8L2304,147L2304,490L2288,490C2272,490,2240,490,2208,490C2176,490,2144,490,2112,490C2080,490,2048,490,2016,490C1984,490,1952,490,1920,490C1888,490,1856,490,1824,490C1792,490,1760,490,1728,490C1696,490,1664,490,1632,490C1600,490,1568,490,1536,490C1504,490,1472,490,1440,490C1408,490,1376,490,1344,490C1312,490,1280,490,1248,490C1216,490,1184,490,1152,490C1120,490,1088,490,1056,490C1024,490,992,490,960,490C928,490,896,490,864,490C832,490,800,490,768,490C736,490,704,490,672,490C640,490,608,490,576,490C544,490,512,490,480,490C448,490,416,490,384,490C352,490,320,490,288,490C256,490,224,490,192,490C160,490,128,490,96,490C64,490,32,490,16,490L0,490Z"/></svg>